<svg xmlns="http://www.w3.org/2000/svg" width="56" height="56" fill="none"><g filter="url(#a)"><circle cx="28" cy="27" r="18" fill="#fff"/></g><g clip-path="url(#b)"><path fill="#696969" d="M28 19.5c2.038 0 2.292.008 3.091.045.8.037 1.343.163 1.822.349.495.19.912.448 1.329.865.38.374.676.828.864 1.328.185.478.311 1.023.349 1.822.035.799.045 1.053.045 3.091 0 2.038-.008 2.292-.045 3.091-.038.8-.163 1.343-.349 1.822-.188.5-.483.954-.864 1.329a3.687 3.687 0 0 1-1.33.864c-.477.185-1.022.311-1.82.349-.8.035-1.054.045-3.092.045-2.038 0-2.292-.008-3.091-.045-.8-.038-1.343-.163-1.822-.349a3.667 3.667 0 0 1-1.328-.864 3.678 3.678 0 0 1-.865-1.33c-.186-.477-.311-1.022-.349-1.82-.035-.8-.045-1.054-.045-3.092 0-2.038.008-2.292.045-3.091.037-.8.163-1.343.349-1.822.187-.5.483-.954.865-1.328a3.672 3.672 0 0 1 1.328-.865c.479-.186 1.022-.311 1.822-.349.799-.035 1.053-.045 3.091-.045Zm0 3.75a3.75 3.75 0 1 0 0 7.5 3.75 3.75 0 0 0 0-7.5Zm4.875-.188a.938.938 0 1 0-1.875 0 .938.938 0 0 0 1.875 0ZM28 24.75a2.25 2.25 0 1 1 0 4.5 2.25 2.25 0 0 1 0-4.5Z"/></g><defs><clipPath id="b"><path fill="#fff" d="M19 18h18v18H19z"/></clipPath><filter id="a" width="56" height="56" x="0" y="0" color-interpolation-filters="sRGB" filterUnits="userSpaceOnUse"><feFlood flood-opacity="0" result="BackgroundImageFix"/><feColorMatrix in="SourceAlpha" result="hardAlpha" values="0 0 0 0 0 0 0 0 0 0 0 0 0 0 0 0 0 0 127 0"/><feOffset dy="1"/><feGaussianBlur stdDeviation="5"/><feColorMatrix values="0 0 0 0 0 0 0 0 0 0 0 0 0 0 0 0 0 0 0.1 0"/><feBlend in2="BackgroundImageFix" result="effect1_dropShadow_2_23"/><feBlend in="SourceGraphic" in2="effect1_dropShadow_2_23" result="shape"/></filter></defs></svg>