<svg>
  <symbol id="facebook" viewBox="0 0 56 56">   
    <g filter="url(#a)">
      <circle cx="28" cy="27" r="18" fill="#FFA902"/>
    </g>
    <g clip-path="url(#b)">
      <path fill="#fff" d="M29.917 28.125h1.77l.709-3h-2.48v-1.5c0-.773 0-1.5 1.417-1.5h1.063v-2.52a18.866 18.866 0 0 0-2.024-.105c-1.923 0-3.289 1.243-3.289 3.525v2.1h-2.125v3h2.125V34.5h2.834v-6.375Z"/>
    </g>
    <defs>
      <clipPath id="b">
        <path fill="#fff" d="M20 18h17v18H20z"/>
      </clipPath>
      <filter id="a" width="56" height="56" x="0" y="0" color-interpolation-filters="sRGB" filterUnits="userSpaceOnUse">
        <feFlood flood-opacity="0" result="BackgroundImageFix"/>
        <feColorMatrix in="SourceAlpha" result="hardAlpha" values="0 0 0 0 0 0 0 0 0 0 0 0 0 0 0 0 0 0 127 0"/>
        <feOffset dy="1"/>
        <feGaussianBlur stdDeviation="5"/>
        <feColorMatrix values="0 0 0 0 0 0 0 0 0 0 0 0 0 0 0 0 0 0 0.1 0"/>
        <feBlend in2="BackgroundImageFix" result="effect1_dropShadow_2_13"/>
        <feBlend in="SourceGraphic" in2="effect1_dropShadow_2_13" result="shape"/>
      </filter>
    </defs>
  </symbol>
  
  <symbol id="instagram-icon" viewBox="0 0 56 56">
    <g filter="url(#a)">
      <circle cx="28" cy="27" r="18" fill="#fff"/>
    </g>
    <g clip-path="url(#b)">
      <path fill="#696969" d="M28 19.5c2.038 0 2.292.008 3.091.045.8.037 1.343.163 1.822.349.495.19.912.448 1.329.865.38.374.676.828.864 1.328.185.478.311 1.023.349 1.822.035.799.045 1.053.045 3.091 0 2.038-.008 2.292-.045 3.091-.038.8-.163 1.343-.349 1.822-.188.5-.483.954-.864 1.329a3.687 3.687 0 0 1-1.33.864c-.477.185-1.022.311-1.82.349-.8.035-1.054.045-3.092.045-2.038 0-2.292-.008-3.091-.045-.8-.038-1.343-.163-1.822-.349a3.667 3.667 0 0 1-1.328-.864 3.678 3.678 0 0 1-.865-1.33c-.186-.477-.311-1.022-.349-1.82-.035-.8-.045-1.054-.045-3.092 0-2.038.008-2.292.045-3.091.037-.8.163-1.343.349-1.822.187-.5.483-.954.865-1.328a3.672 3.672 0 0 1 1.328-.865c.479-.186 1.022-.311 1.822-.349.799-.035 1.053-.045 3.091-.045Zm0 3.75a3.75 3.75 0 1 0 0 7.5 3.75 3.75 0 0 0 0-7.5Zm4.875-.188a.938.938 0 1 0-1.875 0 .938.938 0 0 0 1.875 0ZM28 24.75a2.25 2.25 0 1 1 0 4.5 2.25 2.25 0 0 1 0-4.5Z"/>
    </g>
    <defs>
      <clipPath id="b">
        <path fill="#fff" d="M19 18h18v18H19z"/>
      </clipPath>
      <filter id="a" width="56" height="56" x="0" y="0" color-interpolation-filters="sRGB" filterUnits="userSpaceOnUse">
        <feFlood flood-opacity="0" result="BackgroundImageFix"/>
        <feColorMatrix in="SourceAlpha" result="hardAlpha" values="0 0 0 0 0 0 0 0 0 0 0 0 0 0 0 0 0 0 127 0"/>
        <feOffset dy="1"/>
        <feGaussianBlur stdDeviation="5"/>
        <feColorMatrix values="0 0 0 0 0 0 0 0 0 0 0 0 0 0 0 0 0 0 0.1 0"/>
        <feBlend in2="BackgroundImageFix" result="effect1_dropShadow_2_23"/>
        <feBlend in="SourceGraphic" in2="effect1_dropShadow_2_23" result="shape"/>
      </filter>
    </defs>
  </symbol>

  <symbol id=" twitter-icon" viewBox="0 0 56 56">
    <g filter="url(#a)">
      <circle cx="28" cy="27" r="18" fill="#fff"/>
    </g>
    <g clip-path="url(#b)">
      <path fill="#696969" d="M35.698 22.242a5.68 5.68 0 0 1-1.701.493A3.122 3.122 0 0 0 35.3 21a5.726 5.726 0 0 1-1.881.761 2.916 2.916 0 0 0-1.681-.953 2.82 2.82 0 0 0-1.881.33 3.073 3.073 0 0 0-1.302 1.474 3.307 3.307 0 0 0-.184 2.01 8.047 8.047 0 0 1-3.382-.952 8.52 8.52 0 0 1-2.724-2.326 3.269 3.269 0 0 0-.4 1.577c0 1.088.522 2.049 1.317 2.611-.47-.015-.93-.15-1.342-.392v.039c0 .724.237 1.426.67 1.987a2.94 2.94 0 0 0 1.707 1.089 2.822 2.822 0 0 1-1.339.054 3.14 3.14 0 0 0 1.054 1.559c.496.39 1.095.607 1.713.62a5.83 5.83 0 0 1-2.07 1.111 5.628 5.628 0 0 1-2.315.187 8.044 8.044 0 0 0 4.54 1.41c5.45 0 8.43-4.78 8.43-8.925 0-.135-.004-.271-.01-.405a6.227 6.227 0 0 0 1.479-1.623v-.001Z"/>
    </g>
    <defs>
      <clipPath id="b">
        <path fill="#fff" d="M20 18h17v18H20z"/>
      </clipPath>
      <filter id="a" width="56" height="56" x="0" y="0" color-interpolation-filters="sRGB" filterUnits="userSpaceOnUse">
      <feFlood flood-opacity="0" result="BackgroundImageFix"/>
      <feColorMatrix in="SourceAlpha" result="hardAlpha" values="0 0 0 0 0 0 0 0 0 0 0 0 0 0 0 0 0 0 127 0"/>
      <feOffset dy="1"/>
      <feGaussianBlur stdDeviation="5"/>
      <feColorMatrix values="0 0 0 0 0 0 0 0 0 0 0 0 0 0 0 0 0 0 0.1 0"/>
      <feBlend in2="BackgroundImageFix" result="effect1_dropShadow_2_18"/>
      <feBlend in="SourceGraphic" in2="effect1_dropShadow_2_18" result="shape"/>
    </defs>
  </symbol>
  
  <symbol id="youtube-icon" viewBox="0 0 56 56">
    <g filter="url(#a)">
      <circle cx="28" cy="27" r="18" fill="#fff"/>
    </g>
    <g clip-path="url(#b)">
      <path fill="#696969" d="M35.26 22.873c.323 1.337.323 4.127.323 4.127s0 2.79-.323 4.127c-.18.738-.707 1.32-1.373 1.516C32.677 33 28.5 33 28.5 33s-4.174 0-5.387-.357c-.67-.2-1.195-.78-1.373-1.517-.323-1.336-.323-4.126-.323-4.126s0-2.79.323-4.127c.18-.738.707-1.32 1.373-1.516C24.326 21 28.5 21 28.5 21s4.176 0 5.387.357c.67.2 1.195.78 1.373 1.517Zm-8.177 6.752L31.333 27l-4.25-2.625v5.25Z"/>
    </g>
    <defs>
      <clipPath id="b">
        <path fill="#fff" d="M20 18h17v18H20z"/>
      </clipPath>
      <filter id="a" width="56" height="56" x="0" y="0" color-interpolation-filters="sRGB" filterUnits="userSpaceOnUse">
        <feFlood flood-opacity="0" result="BackgroundImageFix"/>
        <feColorMatrix in="SourceAlpha" result="hardAlpha" values="0 0 0 0 0 0 0 0 0 0 0 0 0 0 0 0 0 0 127 0"/>
        <feOffset dy="1"/>
        <feGaussianBlur stdDeviation="5"/>
        <feColorMatrix values="0 0 0 0 0 0 0 0 0 0 0 0 0 0 0 0 0 0 0.1 0"/>
        <feBlend in2="BackgroundImageFix" result="effect1_dropShadow_2_28"/>
        <feBlend in="SourceGraphic" in2="effect1_dropShadow_2_28" result="shape"/>
      </filter>
    </defs>
  </symbol>

  <symbol id="loupe" viewBox="0 0 21 21">
    <path fill="#868383" d="m16.031 14.617 4.283 4.282-1.415 1.415-4.282-4.283A8.96 8.96 0 0 1 9 18c-4.968 0-9-4.032-9-9s4.032-9 9-9 9 4.032 9 9a8.96 8.96 0 0 1-1.969 5.617Zm-2.006-.742A6.977 6.977 0 0 0 16 9c0-3.868-3.133-7-7-7-3.868 0-7 3.132-7 7 0 3.867 3.132 7 7 7a6.977 6.977 0 0 0 4.875-1.975l.15-.15Z"/>
  </symbol>      
  
</svg>