<svg xmlns="http://www.w3.org/2000/svg" width="56" height="56" fill="none"><g filter="url(#a)"><circle cx="28" cy="27" r="18" fill="#fff"/></g><g clip-path="url(#b)"><path fill="#696969" d="M35.698 22.242a5.68 5.68 0 0 1-1.701.493A3.122 3.122 0 0 0 35.3 21a5.726 5.726 0 0 1-1.881.761 2.916 2.916 0 0 0-1.681-.953 2.82 2.82 0 0 0-1.881.33 3.073 3.073 0 0 0-1.302 1.474 3.307 3.307 0 0 0-.184 2.01 8.047 8.047 0 0 1-3.382-.952 8.52 8.52 0 0 1-2.724-2.326 3.269 3.269 0 0 0-.4 1.577c0 1.088.522 2.049 1.317 2.611-.47-.015-.93-.15-1.342-.392v.039c0 .724.237 1.426.67 1.987a2.94 2.94 0 0 0 1.707 1.089 2.822 2.822 0 0 1-1.339.054 3.14 3.14 0 0 0 1.054 1.559c.496.39 1.095.607 1.713.62a5.83 5.83 0 0 1-2.07 1.111 5.628 5.628 0 0 1-2.315.187 8.044 8.044 0 0 0 4.54 1.41c5.45 0 8.43-4.78 8.43-8.925 0-.135-.004-.271-.01-.405a6.227 6.227 0 0 0 1.479-1.623v-.001Z"/></g><defs><clipPath id="b"><path fill="#fff" d="M20 18h17v18H20z"/></clipPath><filter id="a" width="56" height="56" x="0" y="0" color-interpolation-filters="sRGB" filterUnits="userSpaceOnUse"><feFlood flood-opacity="0" result="BackgroundImageFix"/><feColorMatrix in="SourceAlpha" result="hardAlpha" values="0 0 0 0 0 0 0 0 0 0 0 0 0 0 0 0 0 0 127 0"/><feOffset dy="1"/><feGaussianBlur stdDeviation="5"/><feColorMatrix values="0 0 0 0 0 0 0 0 0 0 0 0 0 0 0 0 0 0 0.1 0"/><feBlend in2="BackgroundImageFix" result="effect1_dropShadow_2_18"/><feBlend in="SourceGraphic" in2="effect1_dropShadow_2_18" result="shape"/></filter></defs></svg>