<svg xmlns="http://www.w3.org/2000/svg" width="56" height="56" fill="none"><g filter="url(#a)"><circle cx="28" cy="27" r="18" fill="#fff"/></g><g clip-path="url(#b)"><path fill="#696969" d="M35.26 22.873c.323 1.337.323 4.127.323 4.127s0 2.79-.323 4.127c-.18.738-.707 1.32-1.373 1.516C32.677 33 28.5 33 28.5 33s-4.174 0-5.387-.357c-.67-.2-1.195-.78-1.373-1.517-.323-1.336-.323-4.126-.323-4.126s0-2.79.323-4.127c.18-.738.707-1.32 1.373-1.516C24.326 21 28.5 21 28.5 21s4.176 0 5.387.357c.67.2 1.195.78 1.373 1.517Zm-8.177 6.752L31.333 27l-4.25-2.625v5.25Z"/></g><defs><clipPath id="b"><path fill="#fff" d="M20 18h17v18H20z"/></clipPath><filter id="a" width="56" height="56" x="0" y="0" color-interpolation-filters="sRGB" filterUnits="userSpaceOnUse"><feFlood flood-opacity="0" result="BackgroundImageFix"/><feColorMatrix in="SourceAlpha" result="hardAlpha" values="0 0 0 0 0 0 0 0 0 0 0 0 0 0 0 0 0 0 127 0"/><feOffset dy="1"/><feGaussianBlur stdDeviation="5"/><feColorMatrix values="0 0 0 0 0 0 0 0 0 0 0 0 0 0 0 0 0 0 0.1 0"/><feBlend in2="BackgroundImageFix" result="effect1_dropShadow_2_28"/><feBlend in="SourceGraphic" in2="effect1_dropShadow_2_28" result="shape"/></filter></defs></svg>